<svg xmlns="http://www.w3.org/2000/svg" viewBox="0 0 680 757" width="100%" role="img" aria-label="Context residency. Budgeting is a measurement, and so is uptake."><style>text{font-family:system-ui,-apple-system,'Segoe UI',Roboto,'Helvetica Neue',sans-serif}@media (prefers-color-scheme:dark){.teal-f{fill:#16302c;stroke:#4fb3a3}.teal-o{stroke:#4fb3a3}.teal-t{fill:#82d6c6}.purple-f{fill:#221f38;stroke:#8b7dd0}.purple-o{stroke:#8b7dd0}.purple-t{fill:#ada0e4}.coral-f{fill:#35211b;stroke:#e08a6c}.coral-o{stroke:#e08a6c}.coral-t{fill:#f2ab8e}.gray-f{fill:#232220;stroke:#57534e}.gray-o{stroke:#57534e}.gray-t{fill:#a8a29b}.ink{fill:#ededea}.mute{fill:#a8a29b}.rule{stroke:#3a3835}}[data-theme=dark] .teal-f{fill:#16302c;stroke:#4fb3a3}[data-theme=dark] .teal-o{stroke:#4fb3a3}[data-theme=dark] .teal-t{fill:#82d6c6}[data-theme=dark] .purple-f{fill:#221f38;stroke:#8b7dd0}[data-theme=dark] .purple-o{stroke:#8b7dd0}[data-theme=dark] .purple-t{fill:#ada0e4}[data-theme=dark] .coral-f{fill:#35211b;stroke:#e08a6c}[data-theme=dark] .coral-o{stroke:#e08a6c}[data-theme=dark] .coral-t{fill:#f2ab8e}[data-theme=dark] .gray-f{fill:#232220;stroke:#57534e}[data-theme=dark] .gray-o{stroke:#57534e}[data-theme=dark] .gray-t{fill:#a8a29b}[data-theme=dark] .ink{fill:#ededea}[data-theme=dark] .mute{fill:#a8a29b}[data-theme=dark] .rule{stroke:#3a3835}[data-theme=light] .teal-f{fill:#e8f5f0;stroke:#2d9184}[data-theme=light] .teal-o{stroke:#2d9184}[data-theme=light] .teal-t{fill:#1f6f65}[data-theme=light] .purple-f{fill:#eeeafa;stroke:#6b5bb5}[data-theme=light] .purple-o{stroke:#6b5bb5}[data-theme=light] .purple-t{fill:#4a3f8a}[data-theme=light] .coral-f{fill:#fdeeea;stroke:#d4674a}[data-theme=light] .coral-o{stroke:#d4674a}[data-theme=light] .coral-t{fill:#a84a30}[data-theme=light] .gray-f{fill:#f4f3f1;stroke:#b0aca6}[data-theme=light] .gray-o{stroke:#b0aca6}[data-theme=light] .gray-t{fill:#6b6660}[data-theme=light] .ink{fill:#1a1a1a}[data-theme=light] .mute{fill:#6b6660}[data-theme=light] .rule{stroke:#ddd9d4}</style><defs><marker id="ar-teal" viewBox="0 0 10 10" refX="8.5" refY="5" markerWidth="5" markerHeight="5" orient="auto-start-reverse"><path d="M0,1.5 L9,5 L0,8.5" fill="none" stroke="#2d9184" stroke-width="1.4" stroke-linecap="round" stroke-linejoin="round" class="teal-o"/></marker><marker id="ar-purple" viewBox="0 0 10 10" refX="8.5" refY="5" markerWidth="5" markerHeight="5" orient="auto-start-reverse"><path d="M0,1.5 L9,5 L0,8.5" fill="none" stroke="#6b5bb5" stroke-width="1.4" stroke-linecap="round" stroke-linejoin="round" class="purple-o"/></marker><marker id="ar-coral" viewBox="0 0 10 10" refX="8.5" refY="5" markerWidth="5" markerHeight="5" orient="auto-start-reverse"><path d="M0,1.5 L9,5 L0,8.5" fill="none" stroke="#d4674a" stroke-width="1.4" stroke-linecap="round" stroke-linejoin="round" class="coral-o"/></marker><marker id="ar-gray" viewBox="0 0 10 10" refX="8.5" refY="5" markerWidth="5" markerHeight="5" orient="auto-start-reverse"><path d="M0,1.5 L9,5 L0,8.5" fill="none" stroke="#b0aca6" stroke-width="1.4" stroke-linecap="round" stroke-linejoin="round" class="gray-o"/></marker></defs><text x="28" y="22" font-size="9.5" fill="#6b6660" letter-spacing="1.1" class="mute">DIAGRAM 06</text><text x="28" y="44" font-size="18" fill="#1a1a1a" font-weight="500" class="ink">Context residency</text><text x="28" y="61" font-size="12" fill="#6b6660" class="mute">Budgeting is a measurement, and so is uptake.</text><text x="28" y="96" font-size="12" fill="#6b6660" class="mute">Context window</text><text x="388" y="96" font-size="12" fill="#6b6660" class="mute">Skill corpus on disk</text><rect x="28" y="106" width="320" height="296" rx="8" fill="none" stroke="#b0aca6" stroke-width="0.5" stroke-dasharray="4 3" class="gray-o"/><text x="52" y="133" font-size="12" fill="#6b6660" class="mute">Full inlining: 196K to 521K tokens</text><text x="52" y="154" font-size="14" fill="#6b6660" class="mute">Kernel and index: 7K to 31K tokens</text><text x="52" y="174" font-size="12" fill="#6b6660" class="mute">Per agent, estimated, 1 June 2026</text><rect x="44" y="186" width="288" height="50" rx="5" fill="#e8f5f0" stroke="#2d9184" stroke-width="0.5" class="teal-f"/><text x="62" y="207.0" font-size="14" fill="#1f6f65" class="teal-t">Agent kernel</text><text x="62" y="224.0" font-size="12" fill="#1f6f65" opacity="0.72" class="teal-t">Inlined verbatim into every agent</text><rect x="44" y="244" width="288" height="50" rx="5" fill="#e8f5f0" stroke="#2d9184" stroke-width="0.5" class="teal-f"/><text x="62" y="265.0" font-size="14" fill="#1f6f65" class="teal-t">Skill citation index</text><text x="62" y="282.0" font-size="12" fill="#1f6f65" opacity="0.72" class="teal-t">One @skill line and its description</text><rect x="44" y="302" width="288" height="50" rx="5" fill="#f4f3f1" stroke="#b0aca6" stroke-width="0.5" class="gray-f"/><text x="62" y="323.0" font-size="14" fill="#6b6660" class="gray-t">load_skill(file, §N)</text><text x="62" y="340.0" font-size="12" fill="#6b6660" opacity="0.72" class="gray-t">Fetched when a step needs it</text><text x="52" y="382" font-size="12" fill="#6b6660" class="mute">Also resident: step plan, lessons</text><rect x="388" y="112" width="7" height="9" rx="1.5" fill="#b0aca6" opacity="0.45" class="gray-f"/><rect x="401" y="112" width="7" height="9" rx="1.5" fill="#b0aca6" opacity="0.45" class="gray-f"/><rect x="414" y="112" width="7" height="9" rx="1.5" fill="#b0aca6" opacity="0.45" class="gray-f"/><rect x="427" y="112" width="7" height="9" rx="1.5" fill="#b0aca6" opacity="0.45" class="gray-f"/><rect x="440" y="112" width="7" height="9" rx="1.5" fill="#b0aca6" opacity="0.45" class="gray-f"/><rect x="453" y="112" width="7" height="9" rx="1.5" fill="#b0aca6" opacity="0.45" class="gray-f"/><rect x="466" y="112" width="7" height="9" rx="1.5" fill="#b0aca6" opacity="0.45" class="gray-f"/><rect x="479" y="112" width="7" height="9" rx="1.5" fill="#b0aca6" opacity="0.45" class="gray-f"/><rect x="492" y="112" width="7" height="9" rx="1.5" fill="#b0aca6" opacity="0.45" class="gray-f"/><rect x="505" y="112" width="7" height="9" rx="1.5" fill="#b0aca6" opacity="0.45" class="gray-f"/><rect x="518" y="112" width="7" height="9" rx="1.5" fill="#b0aca6" opacity="0.45" class="gray-f"/><rect x="531" y="112" width="7" height="9" rx="1.5" fill="#b0aca6" opacity="0.45" class="gray-f"/><rect x="544" y="112" width="7" height="9" rx="1.5" fill="#b0aca6" opacity="0.45" class="gray-f"/><rect x="557" y="112" width="7" height="9" rx="1.5" fill="#b0aca6" opacity="0.45" class="gray-f"/><rect x="570" y="112" width="7" height="9" rx="1.5" fill="#b0aca6" opacity="0.45" class="gray-f"/><rect x="583" y="112" width="7" height="9" rx="1.5" fill="#b0aca6" opacity="0.45" class="gray-f"/><rect x="596" y="112" width="7" height="9" rx="1.5" fill="#b0aca6" opacity="0.45" class="gray-f"/><rect x="609" y="112" width="7" height="9" rx="1.5" fill="#b0aca6" opacity="0.45" class="gray-f"/><rect x="622" y="112" width="7" height="9" rx="1.5" fill="#b0aca6" opacity="0.45" class="gray-f"/><rect x="635" y="112" width="7" height="9" rx="1.5" fill="#b0aca6" opacity="0.45" class="gray-f"/><rect x="388" y="125" width="7" height="9" rx="1.5" fill="#b0aca6" opacity="0.45" class="gray-f"/><rect x="401" y="125" width="7" height="9" rx="1.5" fill="#b0aca6" opacity="0.45" class="gray-f"/><rect x="414" y="125" width="7" height="9" rx="1.5" fill="#b0aca6" opacity="0.45" class="gray-f"/><rect x="427" y="125" width="7" height="9" rx="1.5" fill="#b0aca6" opacity="0.45" class="gray-f"/><rect x="440" y="125" width="7" height="9" rx="1.5" fill="#b0aca6" opacity="0.45" class="gray-f"/><rect x="453" y="125" width="7" height="9" rx="1.5" fill="#b0aca6" opacity="0.45" class="gray-f"/><rect x="466" y="125" width="7" height="9" rx="1.5" fill="#b0aca6" opacity="0.45" class="gray-f"/><rect x="479" y="125" width="7" height="9" rx="1.5" fill="#b0aca6" opacity="0.45" class="gray-f"/><rect x="492" y="125" width="7" height="9" rx="1.5" fill="#b0aca6" opacity="0.45" class="gray-f"/><rect x="505" y="125" width="7" height="9" rx="1.5" fill="#b0aca6" opacity="0.45" class="gray-f"/><rect x="518" y="125" width="7" height="9" rx="1.5" fill="#b0aca6" opacity="0.45" class="gray-f"/><rect x="531" y="125" width="7" height="9" rx="1.5" fill="#b0aca6" opacity="0.45" class="gray-f"/><rect x="544" y="125" width="7" height="9" rx="1.5" fill="#b0aca6" opacity="0.45" class="gray-f"/><rect x="557" y="125" width="7" height="9" rx="1.5" fill="#b0aca6" opacity="0.45" class="gray-f"/><rect x="570" y="125" width="7" height="9" rx="1.5" fill="#b0aca6" opacity="0.45" class="gray-f"/><rect x="583" y="125" width="7" height="9" rx="1.5" fill="#b0aca6" opacity="0.45" class="gray-f"/><rect x="596" y="125" width="7" height="9" rx="1.5" fill="#b0aca6" opacity="0.45" class="gray-f"/><rect x="609" y="125" width="7" height="9" rx="1.5" fill="#b0aca6" opacity="0.45" class="gray-f"/><rect x="622" y="125" width="7" height="9" rx="1.5" fill="#b0aca6" opacity="0.45" class="gray-f"/><rect x="635" y="125" width="7" height="9" rx="1.5" fill="#b0aca6" opacity="0.45" class="gray-f"/><rect x="388" y="138" width="7" height="9" rx="1.5" fill="#b0aca6" opacity="0.45" class="gray-f"/><rect x="401" y="138" width="7" height="9" rx="1.5" fill="#b0aca6" opacity="0.45" class="gray-f"/><rect x="414" y="138" width="7" height="9" rx="1.5" fill="#b0aca6" opacity="0.45" class="gray-f"/><rect x="427" y="138" width="7" height="9" rx="1.5" fill="#b0aca6" opacity="0.45" class="gray-f"/><rect x="440" y="138" width="7" height="9" rx="1.5" fill="#b0aca6" opacity="0.45" class="gray-f"/><rect x="453" y="138" width="7" height="9" rx="1.5" fill="#b0aca6" opacity="0.45" class="gray-f"/><rect x="466" y="138" width="7" height="9" rx="1.5" fill="#b0aca6" opacity="0.45" class="gray-f"/><rect x="479" y="138" width="7" height="9" rx="1.5" fill="#b0aca6" opacity="0.45" class="gray-f"/><rect x="492" y="138" width="7" height="9" rx="1.5" fill="#b0aca6" opacity="0.45" class="gray-f"/><rect x="505" y="138" width="7" height="9" rx="1.5" fill="#b0aca6" opacity="0.45" class="gray-f"/><rect x="518" y="138" width="7" height="9" rx="1.5" fill="#b0aca6" opacity="0.45" class="gray-f"/><rect x="531" y="138" width="7" height="9" rx="1.5" fill="#b0aca6" opacity="0.45" class="gray-f"/><rect x="544" y="138" width="7" height="9" rx="1.5" fill="#b0aca6" opacity="0.45" class="gray-f"/><rect x="557" y="138" width="7" height="9" rx="1.5" fill="#b0aca6" opacity="0.45" class="gray-f"/><rect x="570" y="138" width="7" height="9" rx="1.5" fill="#b0aca6" opacity="0.45" class="gray-f"/><rect x="583" y="138" width="7" height="9" rx="1.5" fill="#b0aca6" opacity="0.45" class="gray-f"/><rect x="596" y="138" width="7" height="9" rx="1.5" fill="#b0aca6" opacity="0.45" class="gray-f"/><rect x="609" y="138" width="7" height="9" rx="1.5" fill="#b0aca6" opacity="0.45" class="gray-f"/><rect x="622" y="138" width="7" height="9" rx="1.5" fill="#b0aca6" opacity="0.45" class="gray-f"/><rect x="635" y="138" width="7" height="9" rx="1.5" fill="#b0aca6" opacity="0.45" class="gray-f"/><rect x="388" y="151" width="7" height="9" rx="1.5" fill="#b0aca6" opacity="0.45" class="gray-f"/><rect x="401" y="151" width="7" height="9" rx="1.5" fill="#b0aca6" opacity="0.45" class="gray-f"/><rect x="414" y="151" width="7" height="9" rx="1.5" fill="#b0aca6" opacity="0.45" class="gray-f"/><rect x="427" y="151" width="7" height="9" rx="1.5" fill="#b0aca6" opacity="0.45" class="gray-f"/><rect x="440" y="151" width="7" height="9" rx="1.5" fill="#b0aca6" opacity="0.45" class="gray-f"/><rect x="453" y="151" width="7" height="9" rx="1.5" fill="#b0aca6" opacity="0.45" class="gray-f"/><rect x="466" y="151" width="7" height="9" rx="1.5" fill="#b0aca6" opacity="0.45" class="gray-f"/><rect x="479" y="151" width="7" height="9" rx="1.5" fill="#b0aca6" opacity="0.45" class="gray-f"/><rect x="492" y="151" width="7" height="9" rx="1.5" fill="#b0aca6" opacity="0.45" class="gray-f"/><rect x="505" y="151" width="7" height="9" rx="1.5" fill="#b0aca6" opacity="0.45" class="gray-f"/><rect x="518" y="151" width="7" height="9" rx="1.5" fill="#b0aca6" opacity="0.45" class="gray-f"/><rect x="531" y="151" width="7" height="9" rx="1.5" fill="#b0aca6" opacity="0.45" class="gray-f"/><rect x="544" y="151" width="7" height="9" rx="1.5" fill="#b0aca6" opacity="0.45" class="gray-f"/><rect x="557" y="151" width="7" height="9" rx="1.5" fill="#b0aca6" opacity="0.45" class="gray-f"/><rect x="570" y="151" width="7" height="9" rx="1.5" fill="#b0aca6" opacity="0.45" class="gray-f"/><rect x="583" y="151" width="7" height="9" rx="1.5" fill="#b0aca6" opacity="0.45" class="gray-f"/><rect x="596" y="151" width="7" height="9" rx="1.5" fill="#b0aca6" opacity="0.45" class="gray-f"/><rect x="609" y="151" width="7" height="9" rx="1.5" fill="#b0aca6" opacity="0.45" class="gray-f"/><rect x="622" y="151" width="7" height="9" rx="1.5" fill="#b0aca6" opacity="0.45" class="gray-f"/><rect x="635" y="151" width="7" height="9" rx="1.5" fill="#b0aca6" opacity="0.45" class="gray-f"/><rect x="388" y="164" width="7" height="9" rx="1.5" fill="#b0aca6" opacity="0.45" class="gray-f"/><rect x="401" y="164" width="7" height="9" rx="1.5" fill="#b0aca6" opacity="0.45" class="gray-f"/><rect x="414" y="164" width="7" height="9" rx="1.5" fill="#b0aca6" opacity="0.45" class="gray-f"/><rect x="427" y="164" width="7" height="9" rx="1.5" fill="#b0aca6" opacity="0.45" class="gray-f"/><rect x="440" y="164" width="7" height="9" rx="1.5" fill="#b0aca6" opacity="0.45" class="gray-f"/><rect x="453" y="164" width="7" height="9" rx="1.5" fill="#b0aca6" opacity="0.45" class="gray-f"/><rect x="466" y="164" width="7" height="9" rx="1.5" fill="#b0aca6" opacity="0.45" class="gray-f"/><rect x="479" y="164" width="7" height="9" rx="1.5" fill="#b0aca6" opacity="0.45" class="gray-f"/><rect x="492" y="164" width="7" height="9" rx="1.5" fill="#b0aca6" opacity="0.45" class="gray-f"/><rect x="505" y="164" width="7" height="9" rx="1.5" fill="#b0aca6" opacity="0.45" class="gray-f"/><rect x="518" y="164" width="7" height="9" rx="1.5" fill="#b0aca6" opacity="0.45" class="gray-f"/><rect x="531" y="164" width="7" height="9" rx="1.5" fill="#b0aca6" opacity="0.45" class="gray-f"/><rect x="544" y="164" width="7" height="9" rx="1.5" fill="#b0aca6" opacity="0.45" class="gray-f"/><rect x="557" y="164" width="7" height="9" rx="1.5" fill="#b0aca6" opacity="0.45" class="gray-f"/><rect x="570" y="164" width="7" height="9" rx="1.5" fill="#b0aca6" opacity="0.45" class="gray-f"/><rect x="583" y="164" width="7" height="9" rx="1.5" fill="#b0aca6" opacity="0.45" class="gray-f"/><rect x="596" y="164" width="7" height="9" rx="1.5" fill="#b0aca6" opacity="0.45" class="gray-f"/><rect x="609" y="164" width="7" height="9" rx="1.5" fill="#b0aca6" opacity="0.45" class="gray-f"/><rect x="622" y="164" width="7" height="9" rx="1.5" fill="#b0aca6" opacity="0.45" class="gray-f"/><rect x="635" y="164" width="7" height="9" rx="1.5" fill="#b0aca6" opacity="0.45" class="gray-f"/><rect x="388" y="177" width="7" height="9" rx="1.5" fill="#b0aca6" opacity="0.45" class="gray-f"/><rect x="401" y="177" width="7" height="9" rx="1.5" fill="#b0aca6" opacity="0.45" class="gray-f"/><rect x="414" y="177" width="7" height="9" rx="1.5" fill="#b0aca6" opacity="0.45" class="gray-f"/><rect x="427" y="177" width="7" height="9" rx="1.5" fill="#b0aca6" opacity="0.45" class="gray-f"/><rect x="440" y="177" width="7" height="9" rx="1.5" fill="#b0aca6" opacity="0.45" class="gray-f"/><rect x="453" y="177" width="7" height="9" rx="1.5" fill="#b0aca6" opacity="0.45" class="gray-f"/><rect x="466" y="177" width="7" height="9" rx="1.5" fill="#b0aca6" opacity="0.45" class="gray-f"/><rect x="479" y="177" width="7" height="9" rx="1.5" fill="#b0aca6" opacity="0.45" class="gray-f"/><rect x="492" y="177" width="7" height="9" rx="1.5" fill="#b0aca6" opacity="0.45" class="gray-f"/><rect x="505" y="177" width="7" height="9" rx="1.5" fill="#b0aca6" opacity="0.45" class="gray-f"/><rect x="518" y="177" width="7" height="9" rx="1.5" fill="#b0aca6" opacity="0.45" class="gray-f"/><rect x="531" y="177" width="7" height="9" rx="1.5" fill="#b0aca6" opacity="0.45" class="gray-f"/><rect x="544" y="177" width="7" height="9" rx="1.5" fill="#b0aca6" opacity="0.45" class="gray-f"/><rect x="557" y="177" width="7" height="9" rx="1.5" fill="#b0aca6" opacity="0.45" class="gray-f"/><rect x="570" y="177" width="7" height="9" rx="1.5" fill="#b0aca6" opacity="0.45" class="gray-f"/><rect x="583" y="177" width="7" height="9" rx="1.5" fill="#b0aca6" opacity="0.45" class="gray-f"/><rect x="596" y="177" width="7" height="9" rx="1.5" fill="#b0aca6" opacity="0.45" class="gray-f"/><rect x="609" y="177" width="7" height="9" rx="1.5" fill="#b0aca6" opacity="0.45" class="gray-f"/><rect x="622" y="177" width="7" height="9" rx="1.5" fill="#b0aca6" opacity="0.45" class="gray-f"/><rect x="635" y="177" width="7" height="9" rx="1.5" fill="#b0aca6" opacity="0.45" class="gray-f"/><rect x="388" y="190" width="7" height="9" rx="1.5" fill="#b0aca6" opacity="0.45" class="gray-f"/><rect x="401" y="190" width="7" height="9" rx="1.5" fill="#b0aca6" opacity="0.45" class="gray-f"/><rect x="414" y="190" width="7" height="9" rx="1.5" fill="#b0aca6" opacity="0.45" class="gray-f"/><rect x="427" y="190" width="7" height="9" rx="1.5" fill="#b0aca6" opacity="0.45" class="gray-f"/><rect x="440" y="190" width="7" height="9" rx="1.5" fill="#b0aca6" opacity="0.45" class="gray-f"/><rect x="453" y="190" width="7" height="9" rx="1.5" fill="#b0aca6" opacity="0.45" class="gray-f"/><rect x="466" y="190" width="7" height="9" rx="1.5" fill="#b0aca6" opacity="0.45" class="gray-f"/><rect x="479" y="190" width="7" height="9" rx="1.5" fill="#b0aca6" opacity="0.45" class="gray-f"/><rect x="492" y="190" width="7" height="9" rx="1.5" fill="#b0aca6" opacity="0.45" class="gray-f"/><rect x="505" y="190" width="7" height="9" rx="1.5" fill="#b0aca6" opacity="0.45" class="gray-f"/><rect x="518" y="190" width="7" height="9" rx="1.5" fill="#b0aca6" opacity="0.45" class="gray-f"/><rect x="531" y="190" width="7" height="9" rx="1.5" fill="#b0aca6" opacity="0.45" class="gray-f"/><rect x="544" y="190" width="7" height="9" rx="1.5" fill="#b0aca6" opacity="0.45" class="gray-f"/><rect x="557" y="190" width="7" height="9" rx="1.5" fill="#b0aca6" opacity="0.45" class="gray-f"/><rect x="570" y="190" width="7" height="9" rx="1.5" fill="#b0aca6" opacity="0.45" class="gray-f"/><rect x="583" y="190" width="7" height="9" rx="1.5" fill="#b0aca6" opacity="0.45" class="gray-f"/><rect x="596" y="190" width="7" height="9" rx="1.5" fill="#b0aca6" opacity="0.45" class="gray-f"/><rect x="609" y="190" width="7" height="9" rx="1.5" fill="#b0aca6" opacity="0.45" class="gray-f"/><rect x="622" y="190" width="7" height="9" rx="1.5" fill="#b0aca6" opacity="0.45" class="gray-f"/><rect x="635" y="190" width="7" height="9" rx="1.5" fill="#b0aca6" opacity="0.45" class="gray-f"/><rect x="388" y="203" width="7" height="9" rx="1.5" fill="#b0aca6" opacity="0.45" class="gray-f"/><rect x="401" y="203" width="7" height="9" rx="1.5" fill="#b0aca6" opacity="0.45" class="gray-f"/><rect x="414" y="203" width="7" height="9" rx="1.5" fill="#b0aca6" opacity="0.45" class="gray-f"/><rect x="427" y="203" width="7" height="9" rx="1.5" fill="#b0aca6" opacity="0.45" class="gray-f"/><rect x="440" y="203" width="7" height="9" rx="1.5" fill="#b0aca6" opacity="0.45" class="gray-f"/><rect x="453" y="203" width="7" height="9" rx="1.5" fill="#b0aca6" opacity="0.45" class="gray-f"/><rect x="466" y="203" width="7" height="9" rx="1.5" fill="#b0aca6" opacity="0.45" class="gray-f"/><rect x="479" y="203" width="7" height="9" rx="1.5" fill="#b0aca6" opacity="0.45" class="gray-f"/><rect x="492" y="203" width="7" height="9" rx="1.5" fill="#b0aca6" opacity="0.45" class="gray-f"/><rect x="505" y="203" width="7" height="9" rx="1.5" fill="#b0aca6" opacity="0.45" class="gray-f"/><rect x="518" y="203" width="7" height="9" rx="1.5" fill="#b0aca6" opacity="0.45" class="gray-f"/><rect x="531" y="203" width="7" height="9" rx="1.5" fill="#b0aca6" opacity="0.45" class="gray-f"/><rect x="544" y="203" width="7" height="9" rx="1.5" fill="#b0aca6" opacity="0.45" class="gray-f"/><rect x="557" y="203" width="7" height="9" rx="1.5" fill="#b0aca6" opacity="0.45" class="gray-f"/><rect x="570" y="203" width="7" height="9" rx="1.5" fill="#b0aca6" opacity="0.45" class="gray-f"/><rect x="583" y="203" width="7" height="9" rx="1.5" fill="#b0aca6" opacity="0.45" class="gray-f"/><rect x="596" y="203" width="7" height="9" rx="1.5" fill="#b0aca6" opacity="0.45" class="gray-f"/><rect x="609" y="203" width="7" height="9" rx="1.5" fill="#b0aca6" opacity="0.45" class="gray-f"/><rect x="622" y="203" width="7" height="9" rx="1.5" fill="#b0aca6" opacity="0.45" class="gray-f"/><rect x="635" y="203" width="7" height="9" rx="1.5" fill="#b0aca6" opacity="0.45" class="gray-f"/><rect x="388" y="216" width="7" height="9" rx="1.5" fill="#b0aca6" opacity="0.45" class="gray-f"/><rect x="401" y="216" width="7" height="9" rx="1.5" fill="#b0aca6" opacity="0.45" class="gray-f"/><rect x="414" y="216" width="7" height="9" rx="1.5" fill="#b0aca6" opacity="0.45" class="gray-f"/><rect x="427" y="216" width="7" height="9" rx="1.5" fill="#b0aca6" opacity="0.45" class="gray-f"/><rect x="440" y="216" width="7" height="9" rx="1.5" fill="#b0aca6" opacity="0.45" class="gray-f"/><rect x="453" y="216" width="7" height="9" rx="1.5" fill="#b0aca6" opacity="0.45" class="gray-f"/><rect x="466" y="216" width="7" height="9" rx="1.5" fill="#b0aca6" opacity="0.45" class="gray-f"/><rect x="479" y="216" width="7" height="9" rx="1.5" fill="#b0aca6" opacity="0.45" class="gray-f"/><rect x="492" y="216" width="7" height="9" rx="1.5" fill="#b0aca6" opacity="0.45" class="gray-f"/><rect x="505" y="216" width="7" height="9" rx="1.5" fill="#b0aca6" opacity="0.45" class="gray-f"/><rect x="518" y="216" width="7" height="9" rx="1.5" fill="#b0aca6" opacity="0.45" class="gray-f"/><rect x="531" y="216" width="7" height="9" rx="1.5" fill="#b0aca6" opacity="0.45" class="gray-f"/><rect x="544" y="216" width="7" height="9" rx="1.5" fill="#b0aca6" opacity="0.45" class="gray-f"/><rect x="557" y="216" width="7" height="9" rx="1.5" fill="#b0aca6" opacity="0.45" class="gray-f"/><rect x="570" y="216" width="7" height="9" rx="1.5" fill="#b0aca6" opacity="0.45" class="gray-f"/><rect x="583" y="216" width="7" height="9" rx="1.5" fill="#b0aca6" opacity="0.45" class="gray-f"/><rect x="596" y="216" width="7" height="9" rx="1.5" fill="#b0aca6" opacity="0.45" class="gray-f"/><rect x="609" y="216" width="7" height="9" rx="1.5" fill="#b0aca6" opacity="0.45" class="gray-f"/><rect x="622" y="216" width="7" height="9" rx="1.5" fill="#b0aca6" opacity="0.45" class="gray-f"/><rect x="635" y="216" width="7" height="9" rx="1.5" fill="#b0aca6" opacity="0.45" class="gray-f"/><rect x="388" y="229" width="7" height="9" rx="1.5" fill="#b0aca6" opacity="0.45" class="gray-f"/><rect x="401" y="229" width="7" height="9" rx="1.5" fill="#b0aca6" opacity="0.45" class="gray-f"/><rect x="414" y="229" width="7" height="9" rx="1.5" fill="#b0aca6" opacity="0.45" class="gray-f"/><rect x="427" y="229" width="7" height="9" rx="1.5" fill="#b0aca6" opacity="0.45" class="gray-f"/><rect x="440" y="229" width="7" height="9" rx="1.5" fill="#b0aca6" opacity="0.45" class="gray-f"/><rect x="453" y="229" width="7" height="9" rx="1.5" fill="#b0aca6" opacity="0.45" class="gray-f"/><rect x="466" y="229" width="7" height="9" rx="1.5" fill="#b0aca6" opacity="0.45" class="gray-f"/><rect x="479" y="229" width="7" height="9" rx="1.5" fill="#b0aca6" opacity="0.45" class="gray-f"/><rect x="492" y="229" width="7" height="9" rx="1.5" fill="#b0aca6" opacity="0.45" class="gray-f"/><rect x="505" y="229" width="7" height="9" rx="1.5" fill="#b0aca6" opacity="0.45" class="gray-f"/><rect x="518" y="229" width="7" height="9" rx="1.5" fill="#b0aca6" opacity="0.45" class="gray-f"/><rect x="531" y="229" width="7" height="9" rx="1.5" fill="#b0aca6" opacity="0.45" class="gray-f"/><rect x="544" y="229" width="7" height="9" rx="1.5" fill="#b0aca6" opacity="0.45" class="gray-f"/><rect x="557" y="229" width="7" height="9" rx="1.5" fill="#b0aca6" opacity="0.45" class="gray-f"/><rect x="570" y="229" width="7" height="9" rx="1.5" fill="#b0aca6" opacity="0.45" class="gray-f"/><rect x="583" y="229" width="7" height="9" rx="1.5" fill="#b0aca6" opacity="0.45" class="gray-f"/><rect x="596" y="229" width="7" height="9" rx="1.5" fill="#b0aca6" opacity="0.45" class="gray-f"/><rect x="609" y="229" width="7" height="9" rx="1.5" fill="#b0aca6" opacity="0.45" class="gray-f"/><rect x="622" y="229" width="7" height="9" rx="1.5" fill="#b0aca6" opacity="0.45" class="gray-f"/><rect x="635" y="229" width="7" height="9" rx="1.5" fill="#b0aca6" opacity="0.45" class="gray-f"/><rect x="388" y="242" width="7" height="9" rx="1.5" fill="#b0aca6" opacity="0.45" class="gray-f"/><rect x="401" y="242" width="7" height="9" rx="1.5" fill="#b0aca6" opacity="0.45" class="gray-f"/><rect x="414" y="242" width="7" height="9" rx="1.5" fill="#b0aca6" opacity="0.45" class="gray-f"/><rect x="427" y="242" width="7" height="9" rx="1.5" fill="#b0aca6" opacity="0.45" class="gray-f"/><rect x="440" y="242" width="7" height="9" rx="1.5" fill="#b0aca6" opacity="0.45" class="gray-f"/><rect x="453" y="242" width="7" height="9" rx="1.5" fill="#b0aca6" opacity="0.45" class="gray-f"/><rect x="466" y="242" width="7" height="9" rx="1.5" fill="#b0aca6" opacity="0.45" class="gray-f"/><rect x="479" y="242" width="7" height="9" rx="1.5" fill="#b0aca6" opacity="0.45" class="gray-f"/><rect x="492" y="242" width="7" height="9" rx="1.5" fill="#b0aca6" opacity="0.45" class="gray-f"/><rect x="505" y="242" width="7" height="9" rx="1.5" fill="#b0aca6" opacity="0.45" class="gray-f"/><rect x="518" y="242" width="7" height="9" rx="1.5" fill="#b0aca6" opacity="0.45" class="gray-f"/><rect x="531" y="242" width="7" height="9" rx="1.5" fill="#b0aca6" opacity="0.45" class="gray-f"/><rect x="544" y="242" width="7" height="9" rx="1.5" fill="#b0aca6" opacity="0.45" class="gray-f"/><rect x="557" y="242" width="7" height="9" rx="1.5" fill="#b0aca6" opacity="0.45" class="gray-f"/><rect x="570" y="242" width="7" height="9" rx="1.5" fill="#b0aca6" opacity="0.45" class="gray-f"/><rect x="583" y="242" width="7" height="9" rx="1.5" fill="#b0aca6" opacity="0.45" class="gray-f"/><rect x="596" y="242" width="7" height="9" rx="1.5" fill="#b0aca6" opacity="0.45" class="gray-f"/><rect x="609" y="242" width="7" height="9" rx="1.5" fill="#b0aca6" opacity="0.45" class="gray-f"/><text x="388" y="278" font-size="14" fill="#6b6660" class="gray-t">218 files</text><text x="388" y="296" font-size="12" fill="#6b6660" opacity="0.72" class="gray-t">Paged in on demand, never inlined</text><path d="M380,172 L356,172 L356,327 L336,327" fill="none" stroke="#2d9184" stroke-width="1.5" opacity="0.8" marker-end="url(#ar-teal)" class="teal-o"/><text x="28" y="434" font-size="12" fill="#6b6660" class="mute">Given against done</text><rect x="28" y="446" width="296" height="78" rx="5" fill="#e8f5f0" stroke="#2d9184" stroke-width="0.5" class="teal-f"/><text x="44" y="470" font-size="14" fill="#1f6f65" class="teal-t">RECEIPT_GIVEN</text><text x="44" y="490" font-size="12" fill="#1f6f65" opacity="0.74" class="teal-t">agent · index entries · prompt chars</text><text x="44" y="506" font-size="12" fill="#1f6f65" opacity="0.6" class="teal-t">Emitted at dispatch, before the call</text><rect x="356" y="446" width="296" height="78" rx="5" fill="#e8f5f0" stroke="#2d9184" stroke-width="0.5" class="teal-f"/><text x="372" y="470" font-size="14" fill="#1f6f65" class="teal-t">RECEIPT</text><text x="372" y="490" font-size="12" fill="#1f6f65" opacity="0.74" class="teal-t">given · cited · gate verdicts · outcome</text><text x="372" y="506" font-size="12" fill="#1f6f65" opacity="0.6" class="teal-t">Assembled after every gate has run</text><line x1="176" y1="524" x2="176" y2="542" stroke="#b0aca6" stroke-width="1.5" opacity="0.6" class="gray-o"/><line x1="504" y1="524" x2="504" y2="542" stroke="#b0aca6" stroke-width="1.5" opacity="0.6" class="gray-o"/><line x1="176" y1="542" x2="504" y2="542" stroke="#b0aca6" stroke-width="1.5" opacity="0.6" class="gray-o"/><line x1="340" y1="542" x2="340" y2="558" stroke="#b0aca6" stroke-width="1.5" opacity="0.6" marker-end="url(#ar-gray)" class="gray-o"/><rect x="130" y="560" width="420" height="56" rx="5" fill="#fdeeea" stroke="#d4674a" stroke-width="0.5" stroke-dasharray="4 3" class="coral-f"/><text x="340" y="584" font-size="14" fill="#a84a30" text-anchor="middle" class="coral-t">given_not_cited</text><text x="340" y="602" font-size="12" fill="#a84a30" text-anchor="middle" opacity="0.74" class="coral-t">Indexed and never cited: paid for, with no recorded use</text><text x="28" y="640" font-size="14" fill="#6b6660" class="mute">A citation proves injection, not influence.</text><line x1="28" y1="670" x2="652" y2="670" stroke="#ddd9d4" stroke-width="0.5" class="rule"/><text x="28" y="687" font-size="10" fill="#6b6660" class="mute">Skill files are cited, not inlined: an agent carries the kernel and a one-line index, and fetches a</text><text x="28" y="700" font-size="10" fill="#6b6660" class="mute">section when a step needs it. Receipts record what was given at dispatch against what the agent cited,</text><text x="28" y="713" font-size="10" fill="#6b6660" class="mute">and the receipt contract states what that cannot show: a citation proves injection, not influence.</text><text x="28" y="730" font-size="10" fill="#6b6660" opacity="0.72" class="mute">Evidence: shipped - PROGRESSIVE_DISCLOSURE and load_skill (master-agentic-orchestrator.ts), receipt.ts;</text><text x="28" y="743" font-size="10" fill="#6b6660" opacity="0.72" class="mute">reduction audited from commit f0e35c1, estimate mode</text></svg>